<svg fill="#EB0E50" version="1.1" id="Capa_1" xmlns="http://www.w3.org/2000/svg"
    xmlns:xlink="http://www.w3.org/1999/xlink"
    width="800px" height="800px" viewBox="0 0 577.41 577.41"
    xml:space="preserve">
<g>
	<g>
		<path d="M533.475,43.943c-58.58-58.579-153.545-58.579-212.123,0L43.939,321.353C15.796,349.478,0,387.632,0,427.405
			s15.814,77.929,43.96,106.069c58.581,58.57,153.545,58.57,212.124-0.011l277.391-277.398
			C592.055,197.488,592.055,102.524,533.475,43.943z M436.859,62.031c8.146-8.154,21.403-8.164,29.584,0
			c8.164,8.183,8.164,21.42,0,29.574c-8.181,8.182-21.42,8.182-29.584,0C428.697,83.423,428.697,70.212,436.859,62.031z
			 M466.443,140.583c-8.181,8.164-21.42,8.154-29.563,0c-8.184-8.182-8.184-21.391,0-29.584c8.183-8.162,21.383-8.162,29.563,0
			C474.607,119.152,474.627,132.4,466.443,140.583z M135.76,491.979c5.682,5.683,5.682,14.888,0,20.567
			c-2.841,2.842-6.552,4.264-10.283,4.264s-7.446-1.422-10.286-4.264l-14.867-14.878l-14.886,14.878
			c-2.841,2.842-6.573,4.264-10.283,4.264c-3.731,0-7.442-1.422-10.284-4.264c-5.684-5.681-5.684-14.894,0-20.567l14.886-14.877
			l-14.868-14.856c-5.681-5.685-5.681-14.887,0-20.569c5.68-5.682,14.886-5.682,20.567,0l14.868,14.867l14.867-14.867
			c5.704-5.7,14.909-5.663,20.569,0c5.682,5.684,5.682,14.896,0,20.569l-14.865,14.866L135.76,491.979z M480.668,235.728
			L235.799,480.653c-2.499,2.491-6.552,2.491-9.053,0L96.761,350.68c-1.214-1.194-1.875-2.821-1.875-4.517
			c0-1.696,0.661-3.323,1.875-4.518L341.689,96.709c1.215-1.191,2.821-1.867,4.526-1.867s3.314,0.673,4.527,1.867l129.924,129.985
			C483.168,229.183,483.168,233.237,480.668,235.728z M515.367,140.583c-8.164,8.154-21.381,8.154-29.529-0.021
			c-8.201-8.17-8.201-21.373,0-29.574c8.146-8.154,21.365-8.18,29.547,0C523.568,119.152,523.568,132.393,515.367,140.583z
			 M515.406,91.613c-8.185,8.183-21.422,8.172-29.568,0c-8.201-8.162-8.201-21.391,0-29.555c8.164-8.183,21.385-8.183,29.568,0
			C523.568,70.212,523.568,83.452,515.406,91.613z"/>
	</g>
</g>
</svg>