<svg version="1.1" xmlns="http://www.w3.org/2000/svg" viewBox="0 0 180 140" width="180" height="140">
    <!-- svg-source:excalidraw -->

    <defs>
        <style class="style-fonts">

        </style>

    </defs>
    <g stroke-linecap="round" transform="translate(10 10) rotate(0 80 60)">
        <path d="M0 0 L160 0 L160 120 L0 120" stroke="none" stroke-width="0" fill="#ff8787"></path>
        <path
            d="M0 0 C38.47 0, 76.93 0, 160 0 M0 0 C50.26 0, 100.52 0, 160 0 M160 0 C160 41.25, 160 82.5, 160 120 M160 0 C160 37.56, 160 75.12, 160 120 M160 120 C121.96 120, 83.93 120, 0 120 M160 120 C112.88 120, 65.76 120, 0 120 M0 120 C0 73, 0 26.01, 0 0 M0 120 C0 85.06, 0 50.12, 0 0"
            stroke="#1e1e1e" stroke-width="2" fill="none"></path>
    </g>
    <g stroke-linecap="round" transform="translate(10 30) rotate(0 50 40)">
        <path d="M0 0 L100 0 L100 80 L0 80" stroke="none" stroke-width="0" fill="#e03131"></path>
        <path
            d="M0 0 C30.21 0, 60.42 0, 100 0 M0 0 C20.53 0, 41.06 0, 100 0 M100 0 C100 26.54, 100 53.09, 100 80 M100 0 C100 16.08, 100 32.15, 100 80 M100 80 C70.7 80, 41.41 80, 0 80 M100 80 C69.18 80, 38.37 80, 0 80 M0 80 C0 55.12, 0 30.23, 0 0 M0 80 C0 63.41, 0 46.82, 0 0"
            stroke="#1e1e1e" stroke-width="2" fill="none"></path>
    </g>
    <g stroke-linecap="round" transform="translate(10 90) rotate(0 50 10)">
        <path d="M0 0 L100 0 L100 20 L0 20" stroke="none" stroke-width="0" fill="#fa5252"></path>
        <path
            d="M0 0 C38.2 0, 76.41 0, 100 0 M0 0 C24.59 0, 49.17 0, 100 0 M100 0 C100 5.72, 100 11.43, 100 20 M100 0 C100 5.62, 100 11.25, 100 20 M100 20 C67.43 20, 34.85 20, 0 20 M100 20 C60.66 20, 21.32 20, 0 20 M0 20 C0 14.63, 0 9.26, 0 0 M0 20 C0 12.82, 0 5.64, 0 0"
            stroke="#1e1e1e" stroke-width="2" fill="none"></path>
    </g>
    <g stroke-linecap="round">
        <g transform="translate(170 30) rotate(0 -20 -10)">
            <path
                d="M0 0 C-14.83 -7.42, -29.67 -14.83, -40 -20 M0 0 C-12.18 -6.09, -24.35 -12.18, -40 -20"
                stroke="#1e1e1e" stroke-width="2" fill="none"></path>
        </g>
    </g>
    <mask></mask>
    <g stroke-linecap="round">
        <g transform="translate(170 110) rotate(0 -20 10)">
            <path
                d="M0 0 C-13.03 6.51, -26.06 13.03, -40 20 M0 0 C-15.74 7.87, -31.47 15.74, -40 20"
                stroke="#1e1e1e" stroke-width="2" fill="none"></path>
        </g>
    </g>
    <mask></mask>
    <g stroke-linecap="round">
        <g transform="translate(130 10) rotate(0 -10 10)">
            <path d="M0 0 C-5.83 5.83, -11.66 11.66, -20 20 M0 0 C-4.71 4.71, -9.41 9.41, -20 20"
                stroke="#1e1e1e" stroke-width="2" fill="none"></path>
        </g>
    </g>
    <mask></mask>
    <g stroke-linecap="round">
        <g transform="translate(110 30) rotate(0 0 40)">
            <path d="M0 0 C0 30.19, 0 60.39, 0 80 M0 0 C0 20.61, 0 41.21, 0 80" stroke="#1e1e1e"
                stroke-width="2" fill="none"></path>
        </g>
    </g>
    <mask></mask>
    <g stroke-linecap="round">
        <g transform="translate(130 130) rotate(0 -10 -10)">
            <path
                d="M0 0 C-5.48 -5.48, -10.97 -10.97, -20 -20 M0 0 C-6.55 -6.55, -13.09 -13.09, -20 -20"
                stroke="#1e1e1e" stroke-width="2" fill="none"></path>
        </g>
    </g>
    <mask></mask>
    <g stroke-linecap="round">
        <g transform="translate(150 30) rotate(0 0 40)">
            <path d="M0 0 C0 22.1, 0 44.21, 0 80 M0 0 C0 20.88, 0 41.75, 0 80" stroke="#1e1e1e"
                stroke-width="2" fill="none"></path>
        </g>
    </g>
    <mask></mask>
    <g stroke-linecap="round">
        <g transform="translate(130 30) rotate(0 0 40)">
            <path d="M0 0 C0 17.74, 0 35.48, 0 80 M0 0 C0 27.91, 0 55.82, 0 80" stroke="#1e1e1e"
                stroke-width="2" fill="none"></path>
        </g>
    </g>
    <mask></mask>
    <g stroke-linecap="round">
        <g transform="translate(110 10) rotate(0 0 60)">
            <path d="M0 0 C0 40.55, 0 81.09, 0 120 M0 0 C0 35.51, 0 71.01, 0 120" stroke="#1e1e1e"
                stroke-width="2" fill="none"></path>
        </g>
    </g>
    <mask></mask>
    <g stroke-linecap="round" transform="translate(10 30) rotate(0 50 10)">
        <path d="M0 0 L100 0 L100 20 L0 20" stroke="none" stroke-width="0" fill="#fa5252"></path>
        <path
            d="M0 0 C20.72 0, 41.44 0, 100 0 M0 0 C27.09 0, 54.18 0, 100 0 M100 0 C100 5.28, 100 10.57, 100 20 M100 0 C100 7.73, 100 15.47, 100 20 M100 20 C70.46 20, 40.92 20, 0 20 M100 20 C63.06 20, 26.12 20, 0 20 M0 20 C0 13.84, 0 7.67, 0 0 M0 20 C0 15.77, 0 11.54, 0 0"
            stroke="#1e1e1e" stroke-width="2" fill="none"></path>
    </g>
</svg>