<svg version="1.1" xmlns="http://www.w3.org/2000/svg" viewBox="0 0 140 120" width="140" height="120">
    <!-- svg-source:excalidraw -->

    <defs>
        <style class="style-fonts">

        </style>

    </defs>
    <g stroke-linecap="round" transform="translate(70 30) rotate(0 30 30)">
        <path d="M31 0 L60 31 L31 60 L0 31" stroke="none" stroke-width="0" fill="#ff8787"
            fill-rule="evenodd"></path>
        <path
            d="M31 0 C40.08 9.71, 49.16 19.41, 60 31 M31 0 C39.65 9.25, 48.31 18.5, 60 31 M60 31 C53.46 37.54, 46.93 44.07, 31 60 M60 31 C50.36 40.64, 40.73 50.27, 31 60 M31 60 C19.31 49.07, 7.62 38.13, 0 31 M31 60 C18.8 48.59, 6.6 37.17, 0 31 M0 31 C7.38 23.62, 14.75 16.25, 31 0 M0 31 C11.13 19.87, 22.27 8.73, 31 0"
            stroke="#1e1e1e" stroke-width="2" fill="none"></path>
    </g>
    <g stroke-linecap="round" transform="translate(10 10) rotate(0 50 50)">
        <path
            d="M100 50 C100 52.18, 99.86 54.37, 99.57 56.53 C99.29 58.68, 98.86 60.84, 98.3 62.94 C97.73 65.04, 97.03 67.12, 96.19 69.13 C95.36 71.14, 94.39 73.12, 93.3 75 C92.21 76.88, 90.99 78.71, 89.67 80.44 C88.34 82.16, 86.89 83.82, 85.36 85.36 C83.82 86.89, 82.16 88.34, 80.44 89.67 C78.71 90.99, 76.88 92.21, 75 93.3 C73.12 94.39, 71.14 95.36, 69.13 96.19 C67.12 97.03, 65.04 97.73, 62.94 98.3 C60.84 98.86, 58.68 99.29, 56.53 99.57 C54.37 99.86, 52.18 100, 50 100 C47.82 100, 45.63 99.86, 43.47 99.57 C41.32 99.29, 39.16 98.86, 37.06 98.3 C34.96 97.73, 32.88 97.03, 30.87 96.19 C28.86 95.36, 26.88 94.39, 25 93.3 C23.12 92.21, 21.29 90.99, 19.56 89.67 C17.84 88.34, 16.18 86.89, 14.64 85.36 C13.11 83.82, 11.66 82.16, 10.33 80.44 C9.01 78.71, 7.79 76.88, 6.7 75 C5.61 73.12, 4.64 71.14, 3.81 69.13 C2.97 67.12, 2.27 65.04, 1.7 62.94 C1.14 60.84, 0.71 58.68, 0.43 56.53 C0.14 54.37, 0 52.18, 0 50 C0 47.82, 0.14 45.63, 0.43 43.47 C0.71 41.32, 1.14 39.16, 1.7 37.06 C2.27 34.96, 2.97 32.88, 3.81 30.87 C4.64 28.86, 5.61 26.88, 6.7 25 C7.79 23.12, 9.01 21.29, 10.33 19.56 C11.66 17.84, 13.11 16.18, 14.64 14.64 C16.18 13.11, 17.84 11.66, 19.56 10.33 C21.29 9.01, 23.12 7.79, 25 6.7 C26.88 5.61, 28.86 4.64, 30.87 3.81 C32.88 2.97, 34.96 2.27, 37.06 1.7 C39.16 1.14, 41.32 0.71, 43.47 0.43 C45.63 0.14, 47.82 0, 50 0 C52.18 0, 54.37 0.14, 56.53 0.43 C58.68 0.71, 60.84 1.14, 62.94 1.7 C65.04 2.27, 67.12 2.97, 69.13 3.81 C71.14 4.64, 73.12 5.61, 75 6.7 C76.88 7.79, 78.71 9.01, 80.44 10.33 C82.16 11.66, 83.82 13.11, 85.36 14.64 C86.89 16.18, 88.34 17.84, 89.67 19.56 C90.99 21.29, 92.21 23.12, 93.3 25 C94.39 26.88, 95.36 28.86, 96.19 30.87 C97.03 32.88, 97.73 34.96, 98.3 37.06 C98.86 39.16, 99.29 41.32, 99.57 43.47 C99.86 45.63, 99.93 48.91, 100 50 C100.07 51.09, 100.07 48.91, 100 50"
            stroke="none" stroke-width="0" fill="#ff8787"></path>
        <path
            d="M100 50 C100 52.18, 99.86 54.37, 99.57 56.53 C99.29 58.68, 98.86 60.84, 98.3 62.94 C97.73 65.04, 97.03 67.12, 96.19 69.13 C95.36 71.14, 94.39 73.12, 93.3 75 C92.21 76.88, 90.99 78.71, 89.67 80.44 C88.34 82.16, 86.89 83.82, 85.36 85.36 C83.82 86.89, 82.16 88.34, 80.44 89.67 C78.71 90.99, 76.88 92.21, 75 93.3 C73.12 94.39, 71.14 95.36, 69.13 96.19 C67.12 97.03, 65.04 97.73, 62.94 98.3 C60.84 98.86, 58.68 99.29, 56.53 99.57 C54.37 99.86, 52.18 100, 50 100 C47.82 100, 45.63 99.86, 43.47 99.57 C41.32 99.29, 39.16 98.86, 37.06 98.3 C34.96 97.73, 32.88 97.03, 30.87 96.19 C28.86 95.36, 26.88 94.39, 25 93.3 C23.12 92.21, 21.29 90.99, 19.56 89.67 C17.84 88.34, 16.18 86.89, 14.64 85.36 C13.11 83.82, 11.66 82.16, 10.33 80.44 C9.01 78.71, 7.79 76.88, 6.7 75 C5.61 73.12, 4.64 71.14, 3.81 69.13 C2.97 67.12, 2.27 65.04, 1.7 62.94 C1.14 60.84, 0.71 58.68, 0.43 56.53 C0.14 54.37, 0 52.18, 0 50 C0 47.82, 0.14 45.63, 0.43 43.47 C0.71 41.32, 1.14 39.16, 1.7 37.06 C2.27 34.96, 2.97 32.88, 3.81 30.87 C4.64 28.86, 5.61 26.88, 6.7 25 C7.79 23.12, 9.01 21.29, 10.33 19.56 C11.66 17.84, 13.11 16.18, 14.64 14.64 C16.18 13.11, 17.84 11.66, 19.56 10.33 C21.29 9.01, 23.12 7.79, 25 6.7 C26.88 5.61, 28.86 4.64, 30.87 3.81 C32.88 2.97, 34.96 2.27, 37.06 1.7 C39.16 1.14, 41.32 0.71, 43.47 0.43 C45.63 0.14, 47.82 0, 50 0 C52.18 0, 54.37 0.14, 56.53 0.43 C58.68 0.71, 60.84 1.14, 62.94 1.7 C65.04 2.27, 67.12 2.97, 69.13 3.81 C71.14 4.64, 73.12 5.61, 75 6.7 C76.88 7.79, 78.71 9.01, 80.44 10.33 C82.16 11.66, 83.82 13.11, 85.36 14.64 C86.89 16.18, 88.34 17.84, 89.67 19.56 C90.99 21.29, 92.21 23.12, 93.3 25 C94.39 26.88, 95.36 28.86, 96.19 30.87 C97.03 32.88, 97.73 34.96, 98.3 37.06 C98.86 39.16, 99.29 41.32, 99.57 43.47 C99.86 45.63, 99.93 48.91, 100 50 C100.07 51.09, 100.07 48.91, 100 50"
            stroke="#1e1e1e" stroke-width="2" fill="none"></path>
    </g>
    <g stroke-linecap="round" transform="translate(30 30) rotate(0 30 30)">
        <path
            d="M60 30 C60 31.74, 59.85 33.5, 59.54 35.21 C59.24 36.92, 58.78 38.63, 58.19 40.26 C57.6 41.89, 56.85 43.5, 55.98 45 C55.11 46.5, 54.1 47.95, 52.98 49.28 C51.87 50.61, 50.61 51.87, 49.28 52.98 C47.95 54.1, 46.5 55.11, 45 55.98 C43.5 56.85, 41.89 57.6, 40.26 58.19 C38.63 58.78, 36.92 59.24, 35.21 59.54 C33.5 59.85, 31.74 60, 30 60 C28.26 60, 26.5 59.85, 24.79 59.54 C23.08 59.24, 21.37 58.78, 19.74 58.19 C18.11 57.6, 16.5 56.85, 15 55.98 C13.5 55.11, 12.05 54.1, 10.72 52.98 C9.39 51.87, 8.13 50.61, 7.02 49.28 C5.9 47.95, 4.89 46.5, 4.02 45 C3.15 43.5, 2.4 41.89, 1.81 40.26 C1.22 38.63, 0.76 36.92, 0.46 35.21 C0.15 33.5, 0 31.74, 0 30 C0 28.26, 0.15 26.5, 0.46 24.79 C0.76 23.08, 1.22 21.37, 1.81 19.74 C2.4 18.11, 3.15 16.5, 4.02 15 C4.89 13.5, 5.9 12.05, 7.02 10.72 C8.13 9.39, 9.39 8.13, 10.72 7.02 C12.05 5.9, 13.5 4.89, 15 4.02 C16.5 3.15, 18.11 2.4, 19.74 1.81 C21.37 1.22, 23.08 0.76, 24.79 0.46 C26.5 0.15, 28.26 0, 30 0 C31.74 0, 33.5 0.15, 35.21 0.46 C36.92 0.76, 38.63 1.22, 40.26 1.81 C41.89 2.4, 43.5 3.15, 45 4.02 C46.5 4.89, 47.95 5.9, 49.28 7.02 C50.61 8.13, 51.87 9.39, 52.98 10.72 C54.1 12.05, 55.11 13.5, 55.98 15 C56.85 16.5, 57.6 18.11, 58.19 19.74 C58.78 21.37, 59.24 23.08, 59.54 24.79 C59.85 26.5, 59.92 29.13, 60 30 C60.08 30.87, 60.08 29.13, 60 30"
            stroke="none" stroke-width="0" fill="#e03131"></path>
        <path
            d="M60 30 C60 31.74, 59.85 33.5, 59.54 35.21 C59.24 36.92, 58.78 38.63, 58.19 40.26 C57.6 41.89, 56.85 43.5, 55.98 45 C55.11 46.5, 54.1 47.95, 52.98 49.28 C51.87 50.61, 50.61 51.87, 49.28 52.98 C47.95 54.1, 46.5 55.11, 45 55.98 C43.5 56.85, 41.89 57.6, 40.26 58.19 C38.63 58.78, 36.92 59.24, 35.21 59.54 C33.5 59.85, 31.74 60, 30 60 C28.26 60, 26.5 59.85, 24.79 59.54 C23.08 59.24, 21.37 58.78, 19.74 58.19 C18.11 57.6, 16.5 56.85, 15 55.98 C13.5 55.11, 12.05 54.1, 10.72 52.98 C9.39 51.87, 8.13 50.61, 7.02 49.28 C5.9 47.95, 4.89 46.5, 4.02 45 C3.15 43.5, 2.4 41.89, 1.81 40.26 C1.22 38.63, 0.76 36.92, 0.46 35.21 C0.15 33.5, 0 31.74, 0 30 C0 28.26, 0.15 26.5, 0.46 24.79 C0.76 23.08, 1.22 21.37, 1.81 19.74 C2.4 18.11, 3.15 16.5, 4.02 15 C4.89 13.5, 5.9 12.05, 7.02 10.72 C8.13 9.39, 9.39 8.13, 10.72 7.02 C12.05 5.9, 13.5 4.89, 15 4.02 C16.5 3.15, 18.11 2.4, 19.74 1.81 C21.37 1.22, 23.08 0.76, 24.79 0.46 C26.5 0.15, 28.26 0, 30 0 C31.74 0, 33.5 0.15, 35.21 0.46 C36.92 0.76, 38.63 1.22, 40.26 1.81 C41.89 2.4, 43.5 3.15, 45 4.02 C46.5 4.89, 47.95 5.9, 49.28 7.02 C50.61 8.13, 51.87 9.39, 52.98 10.72 C54.1 12.05, 55.11 13.5, 55.98 15 C56.85 16.5, 57.6 18.11, 58.19 19.74 C58.78 21.37, 59.24 23.08, 59.54 24.79 C59.85 26.5, 59.92 29.13, 60 30 C60.08 30.87, 60.08 29.13, 60 30"
            stroke="#1e1e1e" stroke-width="2" fill="none"></path>
    </g>
</svg>