<svg version="1.1" xmlns="http://www.w3.org/2000/svg" viewBox="0 0 160 180" width="160" height="180">
    <!-- svg-source:excalidraw -->

    <defs>
        <style class="style-fonts">

        </style>

    </defs>
    <g stroke-linecap="round" transform="translate(10 30) rotate(0 60 60)">
        <path d="M0 0 L120 0 L120 120 L0 120" stroke="none" stroke-width="0" fill="#ffc9c9"></path>
        <path
            d="M0 0 C44.88 0, 89.76 0, 120 0 M0 0 C32.56 0, 65.13 0, 120 0 M120 0 C120 35.88, 120 71.76, 120 120 M120 0 C120 26.8, 120 53.6, 120 120 M120 120 C93.48 120, 66.95 120, 0 120 M120 120 C89.15 120, 58.3 120, 0 120 M0 120 C0 87.34, 0 54.68, 0 0 M0 120 C0 91.19, 0 62.37, 0 0"
            stroke="#1e1e1e" stroke-width="2" fill="none"></path>
    </g>
    <g stroke-linecap="round" transform="translate(30 50) rotate(0 30 40)">
        <path d="M0 0 L60 0 L60 80 L0 80" stroke="none" stroke-width="0" fill="#e03131"></path>
        <path
            d="M0 0 C16.33 0, 32.66 0, 60 0 M0 0 C14.41 0, 28.81 0, 60 0 M60 0 C60 29.19, 60 58.38, 60 80 M60 0 C60 18.03, 60 36.06, 60 80 M60 80 C47.36 80, 34.73 80, 0 80 M60 80 C40.06 80, 20.12 80, 0 80 M0 80 C0 52.92, 0 25.84, 0 0 M0 80 C0 61.73, 0 43.46, 0 0"
            stroke="#1e1e1e" stroke-width="2" fill="none"></path>
    </g>
    <g stroke-linecap="round" transform="translate(70 70) rotate(0 40 20)">
        <path d="M0 0 L80 0 L80 40 L0 40" stroke="none" stroke-width="0" fill="#e03131"></path>
        <path
            d="M0 0 C27.67 0, 55.34 0, 80 0 M0 0 C17.37 0, 34.74 0, 80 0 M80 0 C80 11.25, 80 22.5, 80 40 M80 0 C80 15.03, 80 30.07, 80 40 M80 40 C48.95 40, 17.89 40, 0 40 M80 40 C51.17 40, 22.33 40, 0 40 M0 40 C0 27.42, 0 14.83, 0 0 M0 40 C0 25.35, 0 10.71, 0 0"
            stroke="#1e1e1e" stroke-width="2" fill="none"></path>
    </g>
    <g stroke-linecap="round" transform="translate(30 150) rotate(0 40 10)">
        <path d="M0 0 L80 0 L80 20 L0 20" stroke="none" stroke-width="0" fill="#ff8787"></path>
        <path
            d="M0 0 C16.08 0, 32.17 0, 80 0 M0 0 C24.42 0, 48.84 0, 80 0 M80 0 C80 5.12, 80 10.25, 80 20 M80 0 C80 5.24, 80 10.48, 80 20 M80 20 C50.23 20, 20.46 20, 0 20 M80 20 C51.29 20, 22.58 20, 0 20 M0 20 C0 15.33, 0 10.66, 0 0 M0 20 C0 12.66, 0 5.32, 0 0"
            stroke="#1e1e1e" stroke-width="2" fill="none"></path>
    </g>
    <g stroke-linecap="round" transform="translate(30 10) rotate(0 40 10)">
        <path d="M0 0 L80 0 L80 20 L0 20" stroke="none" stroke-width="0" fill="#ff8787"></path>
        <path
            d="M0 0 C24.02 0, 48.04 0, 80 0 M0 0 C24.64 0, 49.29 0, 80 0 M80 0 C80 6.13, 80 12.26, 80 20 M80 0 C80 5.07, 80 10.14, 80 20 M80 20 C63.81 20, 47.61 20, 0 20 M80 20 C60.36 20, 40.72 20, 0 20 M0 20 C0 14.81, 0 9.61, 0 0 M0 20 C0 15.45, 0 10.89, 0 0"
            stroke="#1e1e1e" stroke-width="2" fill="none"></path>
    </g>
</svg>