<svg version="1.1" xmlns="http://www.w3.org/2000/svg" viewBox="0 0 420 420" width="420" height="420">
   <!-- svg-source:excalidraw -->

   <defs>
      <style class="style-fonts">

      </style>

   </defs>
   <rect x="0" y="0" width="420" height="420" fill="#ffffff"></rect>
   <g stroke-linecap="round" transform="translate(10 10) rotate(0 200 200)">
      <path d="M0 0 L400 0 L400 400 L0 400" stroke="none" stroke-width="0" fill="#7cfc00"></path>
      <path
         d="M0 0 C134.64 0, 269.28 0, 400 0 M0 0 C82.83 0, 165.65 0, 400 0 M400 0 C400 92.26, 400 184.52, 400 400 M400 0 C400 140.1, 400 280.2, 400 400 M400 400 C310.01 400, 220.03 400, 0 400 M400 400 C259.42 400, 118.85 400, 0 400 M0 400 C0 277.02, 0 154.04, 0 0 M0 400 C0 257.9, 0 115.81, 0 0"
         stroke="#7cfc00" stroke-width="2" fill="none"></path>
   </g>
   <g stroke-linecap="round"
      transform="translate(10 143.33333333333337) rotate(0 66.66666666666663 133.33333333333331)">
      <path d="M0 0 L133.33 0 L133.33 266.67 L0 266.67" stroke="none" stroke-width="0"
         fill="#1e1e1e"></path>
      <path
         d="M0 0 C30.71 0, 61.43 0, 133.33 0 M0 0 C38.15 0, 76.31 0, 133.33 0 M133.33 0 C133.33 84.01, 133.33 168.03, 133.33 266.67 M133.33 0 C133.33 70.01, 133.33 140.01, 133.33 266.67 M133.33 266.67 C92.4 266.67, 51.47 266.67, 0 266.67 M133.33 266.67 C84.29 266.67, 35.24 266.67, 0 266.67 M0 266.67 C0 191.97, 0 117.28, 0 0 M0 266.67 C0 191.56, 0 116.44, 0 0"
         stroke="#1e1e1e" stroke-width="2" fill="none"></path>
   </g>
   <g stroke-linecap="round"
      transform="translate(36.66666666666674 170) rotate(0 13.333333333333371 26.666666666666657)">
      <path d="M0 0 L26.67 0 L26.67 53.33 L0 53.33" stroke="none" stroke-width="0" fill="#ffec99"></path>
      <path
         d="M0 0 C7.08 0, 14.15 0, 26.67 0 M0 0 C6.57 0, 13.14 0, 26.67 0 M26.67 0 C26.67 19.94, 26.67 39.88, 26.67 53.33 M26.67 0 C26.67 11.97, 26.67 23.94, 26.67 53.33 M26.67 53.33 C17.07 53.33, 7.48 53.33, 0 53.33 M26.67 53.33 C18.89 53.33, 11.11 53.33, 0 53.33 M0 53.33 C0 35.8, 0 18.27, 0 0 M0 53.33 C0 40.74, 0 28.14, 0 0"
         stroke="#1e1e1e" stroke-width="2" fill="none"></path>
   </g>
   <g stroke-linecap="round"
      transform="translate(90 170) rotate(0 13.333333333333371 26.666666666666657)">
      <path d="M0 0 L26.67 0 L26.67 53.33 L0 53.33" stroke="none" stroke-width="0" fill="#ffec99"></path>
      <path
         d="M0 0 C7.75 0, 15.5 0, 26.67 0 M0 0 C10.07 0, 20.14 0, 26.67 0 M26.67 0 C26.67 11.1, 26.67 22.19, 26.67 53.33 M26.67 0 C26.67 18.16, 26.67 36.32, 26.67 53.33 M26.67 53.33 C18.74 53.33, 10.81 53.33, 0 53.33 M26.67 53.33 C17.17 53.33, 7.68 53.33, 0 53.33 M0 53.33 C0 34.61, 0 15.89, 0 0 M0 53.33 C0 37.91, 0 22.48, 0 0"
         stroke="#1e1e1e" stroke-width="2" fill="none"></path>
   </g>
   <g stroke-linecap="round"
      transform="translate(36.66666666666674 250) rotate(0 13.333333333333371 26.666666666666664)">
      <path d="M0 0 L26.67 0 L26.67 53.33 L0 53.33" stroke="none" stroke-width="0" fill="#ffec99"></path>
      <path
         d="M0 0 C6.23 0, 12.46 0, 26.67 0 M0 0 C8.93 0, 17.86 0, 26.67 0 M26.67 0 C26.67 18.26, 26.67 36.52, 26.67 53.33 M26.67 0 C26.67 16.72, 26.67 33.44, 26.67 53.33 M26.67 53.33 C19.84 53.33, 13.01 53.33, 0 53.33 M26.67 53.33 C20.87 53.33, 15.06 53.33, 0 53.33 M0 53.33 C0 35.1, 0 16.87, 0 0 M0 53.33 C0 32.52, 0 11.71, 0 0"
         stroke="#1e1e1e" stroke-width="2" fill="none"></path>
   </g>
   <g stroke-linecap="round"
      transform="translate(90 250) rotate(0 13.333333333333371 26.666666666666664)">
      <path d="M0 0 L26.67 0 L26.67 53.33 L0 53.33" stroke="none" stroke-width="0" fill="#ffec99"></path>
      <path
         d="M0 0 C6.17 0, 12.33 0, 26.67 0 M0 0 C8.09 0, 16.18 0, 26.67 0 M26.67 0 C26.67 20.07, 26.67 40.14, 26.67 53.33 M26.67 0 C26.67 13.44, 26.67 26.88, 26.67 53.33 M26.67 53.33 C16.32 53.33, 5.97 53.33, 0 53.33 M26.67 53.33 C18.36 53.33, 10.05 53.33, 0 53.33 M0 53.33 C0 42.15, 0 30.96, 0 0 M0 53.33 C0 32.89, 0 12.44, 0 0"
         stroke="#1e1e1e" stroke-width="2" fill="none"></path>
   </g>
   <g stroke-linecap="round"
      transform="translate(90 330) rotate(0 13.333333333333371 26.666666666666664)">
      <path d="M0 0 L26.67 0 L26.67 53.33 L0 53.33" stroke="none" stroke-width="0" fill="#ffec99"></path>
      <path
         d="M0 0 C6.7 0, 13.4 0, 26.67 0 M0 0 C6.41 0, 12.82 0, 26.67 0 M26.67 0 C26.67 11.11, 26.67 22.21, 26.67 53.33 M26.67 0 C26.67 19.59, 26.67 39.18, 26.67 53.33 M26.67 53.33 C18.62 53.33, 10.57 53.33, 0 53.33 M26.67 53.33 C17.23 53.33, 7.79 53.33, 0 53.33 M0 53.33 C0 37.17, 0 21.01, 0 0 M0 53.33 C0 38.78, 0 24.22, 0 0"
         stroke="#1e1e1e" stroke-width="2" fill="none"></path>
   </g>
   <g stroke-linecap="round"
      transform="translate(36.66666666666674 330) rotate(0 13.333333333333371 26.666666666666664)">
      <path d="M0 0 L26.67 0 L26.67 53.33 L0 53.33" stroke="none" stroke-width="0" fill="#ffec99"></path>
      <path
         d="M0 0 C5.51 0, 11.02 0, 26.67 0 M0 0 C9.67 0, 19.33 0, 26.67 0 M26.67 0 C26.67 10.72, 26.67 21.45, 26.67 53.33 M26.67 0 C26.67 19.25, 26.67 38.51, 26.67 53.33 M26.67 53.33 C16.19 53.33, 5.72 53.33, 0 53.33 M26.67 53.33 C16.23 53.33, 5.78 53.33, 0 53.33 M0 53.33 C0 39.71, 0 26.08, 0 0 M0 53.33 C0 32.69, 0 12.06, 0 0"
         stroke="#1e1e1e" stroke-width="2" fill="none"></path>
   </g>
   <g stroke-linecap="round"
      transform="translate(116.66666666666674 36.666666666666686) rotate(0 93.33333333333337 186.66666666666666)">
      <path d="M0 0 L186.67 0 L186.67 373.33 L0 373.33" stroke="none" stroke-width="0"
         fill="#868e96"></path>
      <path
         d="M0 0 C43.58 0, 87.15 0, 186.67 0 M0 0 C53.59 0, 107.18 0, 186.67 0 M186.67 0 C186.67 97.53, 186.67 195.07, 186.67 373.33 M186.67 0 C186.67 116.42, 186.67 232.84, 186.67 373.33 M186.67 373.33 C113.98 373.33, 41.29 373.33, 0 373.33 M186.67 373.33 C143.89 373.33, 101.11 373.33, 0 373.33 M0 373.33 C0 296.14, 0 218.94, 0 0 M0 373.33 C0 254.94, 0 136.56, 0 0"
         stroke="#343a40" stroke-width="2" fill="none"></path>
   </g>
   <g stroke-linecap="round"
      transform="translate(154 74.00000000000006) rotate(0 18.66666666666663 37.33333333333334)">
      <path d="M0 0 L37.33 0 L37.33 74.67 L0 74.67" stroke="none" stroke-width="0" fill="#ffec99"></path>
      <path
         d="M0 0 C12.65 0, 25.29 0, 37.33 0 M0 0 C10.44 0, 20.88 0, 37.33 0 M37.33 0 C37.33 20.1, 37.33 40.21, 37.33 74.67 M37.33 0 C37.33 26.21, 37.33 52.42, 37.33 74.67 M37.33 74.67 C23.14 74.67, 8.96 74.67, 0 74.67 M37.33 74.67 C25.95 74.67, 14.56 74.67, 0 74.67 M0 74.67 C0 57.63, 0 40.59, 0 0 M0 74.67 C0 51.48, 0 28.28, 0 0"
         stroke="#343a40" stroke-width="2" fill="none"></path>
   </g>
   <g stroke-linecap="round"
      transform="translate(228.66666666666674 74.00000000000006) rotate(0 18.66666666666663 37.33333333333334)">
      <path d="M0 0 L37.33 0 L37.33 74.67 L0 74.67" stroke="none" stroke-width="0" fill="#ffec99"></path>
      <path
         d="M0 0 C12.89 0, 25.78 0, 37.33 0 M0 0 C9.11 0, 18.23 0, 37.33 0 M37.33 0 C37.33 15.61, 37.33 31.22, 37.33 74.67 M37.33 0 C37.33 26.61, 37.33 53.22, 37.33 74.67 M37.33 74.67 C27.5 74.67, 17.67 74.67, 0 74.67 M37.33 74.67 C23.28 74.67, 9.23 74.67, 0 74.67 M0 74.67 C0 55.84, 0 37.02, 0 0 M0 74.67 C0 56.31, 0 37.96, 0 0"
         stroke="#343a40" stroke-width="2" fill="none"></path>
   </g>
   <g stroke-linecap="round"
      transform="translate(154 186) rotate(0 18.66666666666663 37.33333333333333)">
      <path d="M0 0 L37.33 0 L37.33 74.67 L0 74.67" stroke="none" stroke-width="0" fill="#ffec99"></path>
      <path
         d="M0 0 C11.6 0, 23.2 0, 37.33 0 M0 0 C12.04 0, 24.08 0, 37.33 0 M37.33 0 C37.33 27.8, 37.33 55.59, 37.33 74.67 M37.33 0 C37.33 18.31, 37.33 36.61, 37.33 74.67 M37.33 74.67 C22.55 74.67, 7.77 74.67, 0 74.67 M37.33 74.67 C29.68 74.67, 22.02 74.67, 0 74.67 M0 74.67 C0 49.91, 0 25.16, 0 0 M0 74.67 C0 44.99, 0 15.32, 0 0"
         stroke="#343a40" stroke-width="2" fill="none"></path>
   </g>
   <g stroke-linecap="round"
      transform="translate(228.66666666666674 186) rotate(0 18.66666666666663 37.33333333333333)">
      <path d="M0 0 L37.33 0 L37.33 74.67 L0 74.67" stroke="none" stroke-width="0" fill="#ffec99"></path>
      <path
         d="M0 0 C12.41 0, 24.83 0, 37.33 0 M0 0 C8.67 0, 17.34 0, 37.33 0 M37.33 0 C37.33 15.58, 37.33 31.17, 37.33 74.67 M37.33 0 C37.33 21.81, 37.33 43.62, 37.33 74.67 M37.33 74.67 C29.44 74.67, 21.54 74.67, 0 74.67 M37.33 74.67 C26.46 74.67, 15.59 74.67, 0 74.67 M0 74.67 C0 51.14, 0 27.62, 0 0 M0 74.67 C0 47.78, 0 20.9, 0 0"
         stroke="#343a40" stroke-width="2" fill="none"></path>
   </g>
   <g stroke-linecap="round"
      transform="translate(228.66666666666674 298) rotate(0 18.66666666666663 37.33333333333333)">
      <path d="M0 0 L37.33 0 L37.33 74.67 L0 74.67" stroke="none" stroke-width="0" fill="#ffec99"></path>
      <path
         d="M0 0 C10.42 0, 20.84 0, 37.33 0 M0 0 C8.82 0, 17.63 0, 37.33 0 M37.33 0 C37.33 19.27, 37.33 38.54, 37.33 74.67 M37.33 0 C37.33 22.22, 37.33 44.44, 37.33 74.67 M37.33 74.67 C24.18 74.67, 11.03 74.67, 0 74.67 M37.33 74.67 C28.29 74.67, 19.25 74.67, 0 74.67 M0 74.67 C0 46.39, 0 18.11, 0 0 M0 74.67 C0 58.49, 0 42.32, 0 0"
         stroke="#343a40" stroke-width="2" fill="none"></path>
   </g>
   <g stroke-linecap="round"
      transform="translate(154 298) rotate(0 18.66666666666663 37.33333333333333)">
      <path d="M0 0 L37.33 0 L37.33 74.67 L0 74.67" stroke="none" stroke-width="0" fill="#ffec99"></path>
      <path
         d="M0 0 C11.97 0, 23.94 0, 37.33 0 M0 0 C11.57 0, 23.14 0, 37.33 0 M37.33 0 C37.33 20.96, 37.33 41.92, 37.33 74.67 M37.33 0 C37.33 26.66, 37.33 53.32, 37.33 74.67 M37.33 74.67 C22.41 74.67, 7.49 74.67, 0 74.67 M37.33 74.67 C24.58 74.67, 11.83 74.67, 0 74.67 M0 74.67 C0 48.03, 0 21.39, 0 0 M0 74.67 C0 51.72, 0 28.77, 0 0"
         stroke="#343a40" stroke-width="2" fill="none"></path>
   </g>
   <g stroke-linecap="round" transform="translate(170 170) rotate(0 60 120)">
      <path d="M0 0 L120 0 L120 240 L0 240" stroke="none" stroke-width="0" fill="#1e1e1e"></path>
      <path
         d="M0 0 C40.85 0, 81.69 0, 120 0 M0 0 C26.99 0, 53.97 0, 120 0 M120 0 C120 85.64, 120 171.28, 120 240 M120 0 C120 78.41, 120 156.83, 120 240 M120 240 C83.6 240, 47.2 240, 0 240 M120 240 C74.67 240, 29.35 240, 0 240 M0 240 C0 182.03, 0 124.06, 0 0 M0 240 C0 151.83, 0 63.65, 0 0"
         stroke="#1e1e1e" stroke-width="2" fill="none"></path>
   </g>
   <g stroke-linecap="round" transform="translate(194 194) rotate(0 12 24)">
      <path d="M0 0 L24 0 L24 48 L0 48" stroke="none" stroke-width="0" fill="#ffec99"></path>
      <path
         d="M0 0 C5.9 0, 11.8 0, 24 0 M0 0 C5.37 0, 10.74 0, 24 0 M24 0 C24 19.18, 24 38.35, 24 48 M24 0 C24 18.72, 24 37.44, 24 48 M24 48 C19.17 48, 14.35 48, 0 48 M24 48 C16.85 48, 9.7 48, 0 48 M0 48 C0 31.23, 0 14.47, 0 0 M0 48 C0 35.55, 0 23.11, 0 0"
         stroke="#1e1e1e" stroke-width="2" fill="none"></path>
   </g>
   <g stroke-linecap="round" transform="translate(242 194) rotate(0 12 24)">
      <path d="M0 0 L24 0 L24 48 L0 48" stroke="none" stroke-width="0" fill="#ffec99"></path>
      <path
         d="M0 0 C6.3 0, 12.6 0, 24 0 M0 0 C8.72 0, 17.44 0, 24 0 M24 0 C24 19.07, 24 38.14, 24 48 M24 0 C24 14.83, 24 29.66, 24 48 M24 48 C18.97 48, 13.94 48, 0 48 M24 48 C15.77 48, 7.55 48, 0 48 M0 48 C0 35.83, 0 23.66, 0 0 M0 48 C0 29.74, 0 11.48, 0 0"
         stroke="#1e1e1e" stroke-width="2" fill="none"></path>
   </g>
   <g stroke-linecap="round" transform="translate(194 266) rotate(0 12 24)">
      <path d="M0 0 L24 0 L24 48 L0 48" stroke="none" stroke-width="0" fill="#ffec99"></path>
      <path
         d="M0 0 C7.69 0, 15.38 0, 24 0 M0 0 C4.88 0, 9.76 0, 24 0 M24 0 C24 13.58, 24 27.16, 24 48 M24 0 C24 16.82, 24 33.63, 24 48 M24 48 C16.91 48, 9.83 48, 0 48 M24 48 C15.49 48, 6.97 48, 0 48 M0 48 C0 29.47, 0 10.94, 0 0 M0 48 C0 37.56, 0 27.12, 0 0"
         stroke="#1e1e1e" stroke-width="2" fill="none"></path>
   </g>
   <g stroke-linecap="round" transform="translate(242 266) rotate(0 12 24)">
      <path d="M0 0 L24 0 L24 48 L0 48" stroke="none" stroke-width="0" fill="#ffec99"></path>
      <path
         d="M0 0 C6.5 0, 13 0, 24 0 M0 0 C7.17 0, 14.34 0, 24 0 M24 0 C24 10.99, 24 21.97, 24 48 M24 0 C24 17.13, 24 34.25, 24 48 M24 48 C14.81 48, 5.61 48, 0 48 M24 48 C16 48, 7.99 48, 0 48 M0 48 C0 35.74, 0 23.48, 0 0 M0 48 C0 29.01, 0 10.03, 0 0"
         stroke="#1e1e1e" stroke-width="2" fill="none"></path>
   </g>
   <g stroke-linecap="round" transform="translate(242 338) rotate(0 12 24)">
      <path d="M0 0 L24 0 L24 48 L0 48" stroke="none" stroke-width="0" fill="#ffec99"></path>
      <path
         d="M0 0 C5.2 0, 10.4 0, 24 0 M0 0 C8.81 0, 17.63 0, 24 0 M24 0 C24 18.16, 24 36.33, 24 48 M24 0 C24 15.16, 24 30.32, 24 48 M24 48 C17.09 48, 10.19 48, 0 48 M24 48 C19.1 48, 14.19 48, 0 48 M0 48 C0 29.82, 0 11.64, 0 0 M0 48 C0 36.14, 0 24.28, 0 0"
         stroke="#1e1e1e" stroke-width="2" fill="none"></path>
   </g>
   <g stroke-linecap="round" transform="translate(194 338) rotate(0 12 24)">
      <path d="M0 0 L24 0 L24 48 L0 48" stroke="none" stroke-width="0" fill="#ffec99"></path>
      <path
         d="M0 0 C5.88 0, 11.76 0, 24 0 M0 0 C6.23 0, 12.45 0, 24 0 M24 0 C24 18.09, 24 36.19, 24 48 M24 0 C24 15.76, 24 31.53, 24 48 M24 48 C18.13 48, 12.25 48, 0 48 M24 48 C14.69 48, 5.39 48, 0 48 M0 48 C0 37.78, 0 27.56, 0 0 M0 48 C0 29.74, 0 11.47, 0 0"
         stroke="#1e1e1e" stroke-width="2" fill="none"></path>
   </g>
   <g stroke-linecap="round" transform="translate(250 90) rotate(0 80 160)">
      <path d="M0 0 L160 0 L160 320 L0 320" stroke="none" stroke-width="0" fill="#343a40"></path>
      <path
         d="M0 0 C49.54 0, 99.07 0, 160 0 M0 0 C47.14 0, 94.28 0, 160 0 M160 0 C160 101.16, 160 202.33, 160 320 M160 0 C160 85.51, 160 171.02, 160 320 M160 320 C102.34 320, 44.68 320, 0 320 M160 320 C103.54 320, 47.08 320, 0 320 M0 320 C0 246.63, 0 173.26, 0 0 M0 320 C0 205.23, 0 90.46, 0 0"
         stroke="#1e1e1e" stroke-width="2" fill="none"></path>
   </g>
   <g stroke-linecap="round" transform="translate(282 122) rotate(0 16 32)">
      <path d="M0 0 L32 0 L32 64 L0 64" stroke="none" stroke-width="0" fill="#ffec99"></path>
      <path
         d="M0 0 C10.99 0, 21.98 0, 32 0 M0 0 C12.28 0, 24.56 0, 32 0 M32 0 C32 18.53, 32 37.06, 32 64 M32 0 C32 15.63, 32 31.27, 32 64 M32 64 C20.96 64, 9.93 64, 0 64 M32 64 C19.9 64, 7.8 64, 0 64 M0 64 C0 44.79, 0 25.58, 0 0 M0 64 C0 39.73, 0 15.46, 0 0"
         stroke="#1e1e1e" stroke-width="2" fill="none"></path>
   </g>
   <g stroke-linecap="round" transform="translate(346 122) rotate(0 16 32)">
      <path d="M0 0 L32 0 L32 64 L0 64" stroke="none" stroke-width="0" fill="#ffec99"></path>
      <path
         d="M0 0 C6.76 0, 13.52 0, 32 0 M0 0 C9.27 0, 18.53 0, 32 0 M32 0 C32 25.21, 32 50.41, 32 64 M32 0 C32 22.56, 32 45.13, 32 64 M32 64 C19.84 64, 7.68 64, 0 64 M32 64 C25.26 64, 18.53 64, 0 64 M0 64 C0 48.29, 0 32.58, 0 0 M0 64 C0 47.16, 0 30.33, 0 0"
         stroke="#1e1e1e" stroke-width="2" fill="none"></path>
   </g>
   <g stroke-linecap="round" transform="translate(282 218) rotate(0 16 32)">
      <path d="M0 0 L32 0 L32 64 L0 64" stroke="none" stroke-width="0" fill="#ffec99"></path>
      <path
         d="M0 0 C12.58 0, 25.15 0, 32 0 M0 0 C8.31 0, 16.61 0, 32 0 M32 0 C32 25.4, 32 50.8, 32 64 M32 0 C32 25.08, 32 50.16, 32 64 M32 64 C19.51 64, 7.01 64, 0 64 M32 64 C24.52 64, 17.05 64, 0 64 M0 64 C0 50.21, 0 36.42, 0 0 M0 64 C0 50.63, 0 37.26, 0 0"
         stroke="#1e1e1e" stroke-width="2" fill="none"></path>
   </g>
   <g stroke-linecap="round" transform="translate(346 218) rotate(0 16 32)">
      <path d="M0 0 L32 0 L32 64 L0 64" stroke="none" stroke-width="0" fill="#ffec99"></path>
      <path
         d="M0 0 C10.61 0, 21.22 0, 32 0 M0 0 C9.99 0, 19.98 0, 32 0 M32 0 C32 13.51, 32 27.03, 32 64 M32 0 C32 16.12, 32 32.25, 32 64 M32 64 C24.75 64, 17.49 64, 0 64 M32 64 C24.33 64, 16.66 64, 0 64 M0 64 C0 46.88, 0 29.75, 0 0 M0 64 C0 42.07, 0 20.15, 0 0"
         stroke="#1e1e1e" stroke-width="2" fill="none"></path>
   </g>
   <g stroke-linecap="round" transform="translate(346 314) rotate(0 16 32)">
      <path d="M0 0 L32 0 L32 64 L0 64" stroke="none" stroke-width="0" fill="#ffec99"></path>
      <path
         d="M0 0 C6.48 0, 12.96 0, 32 0 M0 0 C11.76 0, 23.52 0, 32 0 M32 0 C32 16.8, 32 33.6, 32 64 M32 0 C32 15.56, 32 31.12, 32 64 M32 64 C24.51 64, 17.02 64, 0 64 M32 64 C20.47 64, 8.94 64, 0 64 M0 64 C0 42.56, 0 21.11, 0 0 M0 64 C0 48.09, 0 32.19, 0 0"
         stroke="#1e1e1e" stroke-width="2" fill="none"></path>
   </g>
   <g stroke-linecap="round" transform="translate(282 314) rotate(0 16 32)">
      <path d="M0 0 L32 0 L32 64 L0 64" stroke="none" stroke-width="0" fill="#ffec99"></path>
      <path
         d="M0 0 C9.02 0, 18.05 0, 32 0 M0 0 C12.15 0, 24.3 0, 32 0 M32 0 C32 16.59, 32 33.18, 32 64 M32 0 C32 14.6, 32 29.19, 32 64 M32 64 C24.92 64, 17.84 64, 0 64 M32 64 C19.25 64, 6.5 64, 0 64 M0 64 C0 38.65, 0 13.31, 0 0 M0 64 C0 44.76, 0 25.52, 0 0"
         stroke="#1e1e1e" stroke-width="2" fill="none"></path>
   </g>
</svg>