<svg version="1.1" xmlns="http://www.w3.org/2000/svg" viewBox="0 0 420 420" width="420" height="420">
   <!-- svg-source:excalidraw -->

   <defs>
      <style class="style-fonts">

      </style>

   </defs>
   <rect x="0" y="0" width="420" height="420" fill="#ffffff"></rect>
   <g stroke-linecap="round" transform="translate(10 10) rotate(0 200 200)">
      <path d="M0 0 L400 0 L400 400 L0 400" stroke="none" stroke-width="0" fill="#7cfc00"></path>
      <path
         d="M0 0 C130.17 0, 260.34 0, 400 0 M0 0 C97.48 0, 194.96 0, 400 0 M400 0 C400 142.66, 400 285.33, 400 400 M400 0 C400 143.87, 400 287.74, 400 400 M400 400 C274.35 400, 148.7 400, 0 400 M400 400 C307.82 400, 215.63 400, 0 400 M0 400 C0 284.04, 0 168.09, 0 0 M0 400 C0 249.29, 0 98.58, 0 0"
         stroke="#7cfc00" stroke-width="2" fill="none"></path>
   </g>
   <g stroke-linecap="round" transform="translate(10 190) rotate(0 60 60)">
      <path d="M61 0 L120 61 L61 120 L0 61" stroke="none" stroke-width="0" fill="#343a40"
         fill-rule="evenodd"></path>
      <path
         d="M61 0 C73.66 13.09, 86.32 26.17, 120 61 M61 0 C81.35 21.04, 101.69 42.07, 120 61 M120 61 C102.84 78.16, 85.67 95.33, 61 120 M120 61 C101.44 79.56, 82.88 98.12, 61 120 M61 120 C42.95 102.54, 24.9 85.08, 0 61 M61 120 C43.67 103.23, 26.33 86.47, 0 61 M0 61 C21.47 39.53, 42.94 18.06, 61 0 M0 61 C19.15 41.85, 38.3 22.7, 61 0"
         stroke="#1e1e1e" stroke-width="2" fill="none"></path>
   </g>
   <g stroke-linecap="round" transform="translate(330 90) rotate(0 40 160)">
      <path d="M0 0 L80 0 L80 320 L0 320" stroke="none" stroke-width="0" fill="#343a40"></path>
      <path
         d="M0 0 C20.65 0, 41.3 0, 80 0 M0 0 C31.71 0, 63.41 0, 80 0 M80 0 C80 107.55, 80 215.1, 80 320 M80 0 C80 96.19, 80 192.38, 80 320 M80 320 C60.92 320, 41.85 320, 0 320 M80 320 C49.24 320, 18.48 320, 0 320 M0 320 C0 210.42, 0 100.84, 0 0 M0 320 C0 217.21, 0 114.43, 0 0"
         stroke="#1e1e1e" stroke-width="2" fill="none"></path>
   </g>
   <g stroke-linecap="round" transform="translate(210 90) rotate(0 30 110)">
      <path d="M0 0 L60 0 L60 220 L0 220" stroke="none" stroke-width="0" fill="#343a40"></path>
      <path
         d="M0 0 C23.89 0, 47.79 0, 60 0 M0 0 C19.95 0, 39.91 0, 60 0 M60 0 C60 64.17, 60 128.34, 60 220 M60 0 C60 45.47, 60 90.94, 60 220 M60 220 C44.28 220, 28.56 220, 0 220 M60 220 C38.01 220, 16.02 220, 0 220 M0 220 C0 157.28, 0 94.56, 0 0 M0 220 C0 174.92, 0 129.83, 0 0"
         stroke="#1e1e1e" stroke-width="2" fill="none"></path>
   </g>
   <g stroke-linecap="round" transform="translate(130 190) rotate(0 60 60)">
      <path d="M61 0 L120 61 L61 120 L0 61" stroke="none" stroke-width="0" fill="#343a40"
         fill-rule="evenodd"></path>
      <path
         d="M61 0 C77.37 16.92, 93.73 33.84, 120 61 M61 0 C76.77 16.3, 92.53 32.6, 120 61 M120 61 C102.52 78.48, 85.04 95.96, 61 120 M120 61 C106.1 74.9, 92.2 88.8, 61 120 M61 120 C39.52 99.23, 18.05 78.46, 0 61 M61 120 C44.87 104.4, 28.74 88.79, 0 61 M0 61 C20.1 40.9, 40.2 20.8, 61 0 M0 61 C15.34 45.66, 30.68 30.32, 61 0"
         stroke="#1e1e1e" stroke-width="2" fill="none"></path>
   </g>
   <g stroke-linecap="round" transform="translate(250 190) rotate(0 60 60)">
      <path d="M61 0 L120 61 L61 120 L0 61" stroke="none" stroke-width="0" fill="#343a40"
         fill-rule="evenodd"></path>
      <path
         d="M61 0 C73.21 12.62, 85.42 25.24, 120 61 M61 0 C81.28 20.97, 101.56 41.94, 120 61 M120 61 C100.2 80.8, 80.39 100.61, 61 120 M120 61 C108.19 72.81, 96.39 84.61, 61 120 M61 120 C45.54 105.05, 30.09 90.1, 0 61 M61 120 C42.27 101.89, 23.55 83.77, 0 61 M0 61 C17.41 43.59, 34.82 26.18, 61 0 M0 61 C16.57 44.43, 33.14 27.86, 61 0"
         stroke="#1e1e1e" stroke-width="2" fill="none"></path>
   </g>
   <g stroke-linecap="round" transform="translate(10 250) rotate(0 200 80)">
      <path d="M0 0 L400 0 L400 160 L0 160" stroke="none" stroke-width="0" fill="#343a40"></path>
      <path
         d="M0 0 C80.76 0, 161.53 0, 400 0 M0 0 C84.8 0, 169.6 0, 400 0 M400 0 C400 44.45, 400 88.89, 400 160 M400 0 C400 36.27, 400 72.55, 400 160 M400 160 C265.16 160, 130.31 160, 0 160 M400 160 C266.14 160, 132.28 160, 0 160 M0 160 C0 99.83, 0 39.67, 0 0 M0 160 C0 122.12, 0 84.23, 0 0"
         stroke="#1e1e1e" stroke-width="2" fill="none"></path>
   </g>
   <g stroke-linecap="round" transform="translate(30 310) rotate(0 40 50)">
      <path d="M0 0 L80 0 L80 100 L0 100" stroke="none" stroke-width="0" fill="#ffec99"></path>
      <path
         d="M0 0 C28.41 0, 56.83 0, 80 0 M0 0 C30.01 0, 60.01 0, 80 0 M80 0 C80 23.57, 80 47.14, 80 100 M80 0 C80 37.41, 80 74.82, 80 100 M80 100 C58.72 100, 37.44 100, 0 100 M80 100 C49.61 100, 19.23 100, 0 100 M0 100 C0 75.78, 0 51.55, 0 0 M0 100 C0 75.59, 0 51.18, 0 0"
         stroke="#1e1e1e" stroke-width="2" fill="none"></path>
   </g>
   <g stroke-linecap="round" transform="translate(30 290) rotate(0 40 30)">
      <path
         d="M80 30 C80 31.56, 79.83 33.15, 79.51 34.69 C79.18 36.24, 78.69 37.78, 78.04 39.27 C77.4 40.76, 76.59 42.23, 75.64 43.62 C74.69 45.01, 73.59 46.37, 72.36 47.63 C71.13 48.9, 69.76 50.11, 68.28 51.21 C66.81 52.32, 65.2 53.35, 63.51 54.27 C61.82 55.19, 60.02 56.02, 58.16 56.73 C56.3 57.44, 54.34 58.05, 52.36 58.53 C50.38 59.02, 48.32 59.39, 46.26 59.63 C44.2 59.88, 42.09 60, 40 60 C37.91 60, 35.8 59.88, 33.74 59.63 C31.68 59.39, 29.62 59.02, 27.64 58.53 C25.66 58.05, 23.7 57.44, 21.84 56.73 C19.98 56.02, 18.18 55.19, 16.49 54.27 C14.8 53.35, 13.19 52.32, 11.72 51.21 C10.24 50.11, 8.87 48.9, 7.64 47.63 C6.41 46.37, 5.31 45.01, 4.36 43.62 C3.41 42.23, 2.6 40.76, 1.96 39.27 C1.31 37.78, 0.82 36.24, 0.49 34.69 C0.17 33.15, 0 31.56, 0 30 C0 28.44, 0.17 26.85, 0.49 25.31 C0.82 23.76, 1.31 22.22, 1.96 20.73 C2.6 19.24, 3.41 17.77, 4.36 16.38 C5.31 14.99, 6.41 13.63, 7.64 12.37 C8.87 11.1, 10.24 9.89, 11.72 8.79 C13.19 7.68, 14.8 6.65, 16.49 5.73 C18.18 4.81, 19.98 3.98, 21.84 3.27 C23.7 2.56, 25.66 1.95, 27.64 1.47 C29.62 0.98, 31.68 0.61, 33.74 0.37 C35.8 0.12, 37.91 0, 40 0 C42.09 0, 44.2 0.12, 46.26 0.37 C48.32 0.61, 50.38 0.98, 52.36 1.47 C54.34 1.95, 56.3 2.56, 58.16 3.27 C60.02 3.98, 61.82 4.81, 63.51 5.73 C65.2 6.65, 66.81 7.68, 68.28 8.79 C69.76 9.89, 71.13 11.1, 72.36 12.37 C73.59 13.63, 74.69 14.99, 75.64 16.38 C76.59 17.77, 77.4 19.24, 78.04 20.73 C78.69 22.22, 79.18 23.76, 79.51 25.31 C79.83 26.85, 79.92 29.22, 80 30 C80.08 30.78, 80.08 29.22, 80 30"
         stroke="none" stroke-width="0" fill="#ffec99"></path>
      <path
         d="M80 30 C80 31.56, 79.83 33.15, 79.51 34.69 C79.18 36.24, 78.69 37.78, 78.04 39.27 C77.4 40.76, 76.59 42.23, 75.64 43.62 C74.69 45.01, 73.59 46.37, 72.36 47.63 C71.13 48.9, 69.76 50.11, 68.28 51.21 C66.81 52.32, 65.2 53.35, 63.51 54.27 C61.82 55.19, 60.02 56.02, 58.16 56.73 C56.3 57.44, 54.34 58.05, 52.36 58.53 C50.38 59.02, 48.32 59.39, 46.26 59.63 C44.2 59.88, 42.09 60, 40 60 C37.91 60, 35.8 59.88, 33.74 59.63 C31.68 59.39, 29.62 59.02, 27.64 58.53 C25.66 58.05, 23.7 57.44, 21.84 56.73 C19.98 56.02, 18.18 55.19, 16.49 54.27 C14.8 53.35, 13.19 52.32, 11.72 51.21 C10.24 50.11, 8.87 48.9, 7.64 47.63 C6.41 46.37, 5.31 45.01, 4.36 43.62 C3.41 42.23, 2.6 40.76, 1.96 39.27 C1.31 37.78, 0.82 36.24, 0.49 34.69 C0.17 33.15, 0 31.56, 0 30 C0 28.44, 0.17 26.85, 0.49 25.31 C0.82 23.76, 1.31 22.22, 1.96 20.73 C2.6 19.24, 3.41 17.77, 4.36 16.38 C5.31 14.99, 6.41 13.63, 7.64 12.37 C8.87 11.1, 10.24 9.89, 11.72 8.79 C13.19 7.68, 14.8 6.65, 16.49 5.73 C18.18 4.81, 19.98 3.98, 21.84 3.27 C23.7 2.56, 25.66 1.95, 27.64 1.47 C29.62 0.98, 31.68 0.61, 33.74 0.37 C35.8 0.12, 37.91 0, 40 0 C42.09 0, 44.2 0.12, 46.26 0.37 C48.32 0.61, 50.38 0.98, 52.36 1.47 C54.34 1.95, 56.3 2.56, 58.16 3.27 C60.02 3.98, 61.82 4.81, 63.51 5.73 C65.2 6.65, 66.81 7.68, 68.28 8.79 C69.76 9.89, 71.13 11.1, 72.36 12.37 C73.59 13.63, 74.69 14.99, 75.64 16.38 C76.59 17.77, 77.4 19.24, 78.04 20.73 C78.69 22.22, 79.18 23.76, 79.51 25.31 C79.83 26.85, 79.92 29.22, 80 30 C80.08 30.78, 80.08 29.22, 80 30"
         stroke="#1e1e1e" stroke-width="2" fill="none"></path>
   </g>
   <g stroke-linecap="round">
      <g transform="translate(70 410) rotate(0 0 -40)">
         <path d="M0 0 C0 -29.93, 0 -59.86, 0 -80 M0 0 C0 -21.28, 0 -42.56, 0 -80" stroke="#1e1e1e"
            stroke-width="2" fill="none"></path>
      </g>
   </g>
   <mask></mask>
   <g stroke-linecap="round" transform="translate(150 310) rotate(0 40 50)">
      <path d="M0 0 L80 0 L80 100 L0 100" stroke="none" stroke-width="0" fill="#ffec99"></path>
      <path
         d="M0 0 C17.63 0, 35.25 0, 80 0 M0 0 C21.01 0, 42.03 0, 80 0 M80 0 C80 27.72, 80 55.44, 80 100 M80 0 C80 33.9, 80 67.8, 80 100 M80 100 C58.53 100, 37.06 100, 0 100 M80 100 C62.35 100, 44.69 100, 0 100 M0 100 C0 76.88, 0 53.75, 0 0 M0 100 C0 64.19, 0 28.38, 0 0"
         stroke="#1e1e1e" stroke-width="2" fill="none"></path>
   </g>
   <g stroke-linecap="round" transform="translate(150 290) rotate(0 40 30)">
      <path
         d="M80 30 C80 31.56, 79.83 33.15, 79.51 34.69 C79.18 36.24, 78.69 37.78, 78.04 39.27 C77.4 40.76, 76.59 42.23, 75.64 43.62 C74.69 45.01, 73.59 46.37, 72.36 47.63 C71.13 48.9, 69.76 50.11, 68.28 51.21 C66.81 52.32, 65.2 53.35, 63.51 54.27 C61.82 55.19, 60.02 56.02, 58.16 56.73 C56.3 57.44, 54.34 58.05, 52.36 58.53 C50.38 59.02, 48.32 59.39, 46.26 59.63 C44.2 59.88, 42.09 60, 40 60 C37.91 60, 35.8 59.88, 33.74 59.63 C31.68 59.39, 29.62 59.02, 27.64 58.53 C25.66 58.05, 23.7 57.44, 21.84 56.73 C19.98 56.02, 18.18 55.19, 16.49 54.27 C14.8 53.35, 13.19 52.32, 11.72 51.21 C10.24 50.11, 8.87 48.9, 7.64 47.63 C6.41 46.37, 5.31 45.01, 4.36 43.62 C3.41 42.23, 2.6 40.76, 1.96 39.27 C1.31 37.78, 0.82 36.24, 0.49 34.69 C0.17 33.15, 0 31.56, 0 30 C0 28.44, 0.17 26.85, 0.49 25.31 C0.82 23.76, 1.31 22.22, 1.96 20.73 C2.6 19.24, 3.41 17.77, 4.36 16.38 C5.31 14.99, 6.41 13.63, 7.64 12.37 C8.87 11.1, 10.24 9.89, 11.72 8.79 C13.19 7.68, 14.8 6.65, 16.49 5.73 C18.18 4.81, 19.98 3.98, 21.84 3.27 C23.7 2.56, 25.66 1.95, 27.64 1.47 C29.62 0.98, 31.68 0.61, 33.74 0.37 C35.8 0.12, 37.91 0, 40 0 C42.09 0, 44.2 0.12, 46.26 0.37 C48.32 0.61, 50.38 0.98, 52.36 1.47 C54.34 1.95, 56.3 2.56, 58.16 3.27 C60.02 3.98, 61.82 4.81, 63.51 5.73 C65.2 6.65, 66.81 7.68, 68.28 8.79 C69.76 9.89, 71.13 11.1, 72.36 12.37 C73.59 13.63, 74.69 14.99, 75.64 16.38 C76.59 17.77, 77.4 19.24, 78.04 20.73 C78.69 22.22, 79.18 23.76, 79.51 25.31 C79.83 26.85, 79.92 29.22, 80 30 C80.08 30.78, 80.08 29.22, 80 30"
         stroke="none" stroke-width="0" fill="#ffec99"></path>
      <path
         d="M80 30 C80 31.56, 79.83 33.15, 79.51 34.69 C79.18 36.24, 78.69 37.78, 78.04 39.27 C77.4 40.76, 76.59 42.23, 75.64 43.62 C74.69 45.01, 73.59 46.37, 72.36 47.63 C71.13 48.9, 69.76 50.11, 68.28 51.21 C66.81 52.32, 65.2 53.35, 63.51 54.27 C61.82 55.19, 60.02 56.02, 58.16 56.73 C56.3 57.44, 54.34 58.05, 52.36 58.53 C50.38 59.02, 48.32 59.39, 46.26 59.63 C44.2 59.88, 42.09 60, 40 60 C37.91 60, 35.8 59.88, 33.74 59.63 C31.68 59.39, 29.62 59.02, 27.64 58.53 C25.66 58.05, 23.7 57.44, 21.84 56.73 C19.98 56.02, 18.18 55.19, 16.49 54.27 C14.8 53.35, 13.19 52.32, 11.72 51.21 C10.24 50.11, 8.87 48.9, 7.64 47.63 C6.41 46.37, 5.31 45.01, 4.36 43.62 C3.41 42.23, 2.6 40.76, 1.96 39.27 C1.31 37.78, 0.82 36.24, 0.49 34.69 C0.17 33.15, 0 31.56, 0 30 C0 28.44, 0.17 26.85, 0.49 25.31 C0.82 23.76, 1.31 22.22, 1.96 20.73 C2.6 19.24, 3.41 17.77, 4.36 16.38 C5.31 14.99, 6.41 13.63, 7.64 12.37 C8.87 11.1, 10.24 9.89, 11.72 8.79 C13.19 7.68, 14.8 6.65, 16.49 5.73 C18.18 4.81, 19.98 3.98, 21.84 3.27 C23.7 2.56, 25.66 1.95, 27.64 1.47 C29.62 0.98, 31.68 0.61, 33.74 0.37 C35.8 0.12, 37.91 0, 40 0 C42.09 0, 44.2 0.12, 46.26 0.37 C48.32 0.61, 50.38 0.98, 52.36 1.47 C54.34 1.95, 56.3 2.56, 58.16 3.27 C60.02 3.98, 61.82 4.81, 63.51 5.73 C65.2 6.65, 66.81 7.68, 68.28 8.79 C69.76 9.89, 71.13 11.1, 72.36 12.37 C73.59 13.63, 74.69 14.99, 75.64 16.38 C76.59 17.77, 77.4 19.24, 78.04 20.73 C78.69 22.22, 79.18 23.76, 79.51 25.31 C79.83 26.85, 79.92 29.22, 80 30 C80.08 30.78, 80.08 29.22, 80 30"
         stroke="#1e1e1e" stroke-width="2" fill="none"></path>
   </g>
   <g stroke-linecap="round">
      <g transform="translate(190 410) rotate(0 0 -40)">
         <path d="M0 0 C0 -27.01, 0 -54.02, 0 -80 M0 0 C0 -28.73, 0 -57.46, 0 -80" stroke="#1e1e1e"
            stroke-width="2" fill="none"></path>
      </g>
   </g>
   <mask></mask>
   <g stroke-linecap="round" transform="translate(150 310) rotate(0 40 50)">
      <path d="M0 0 L80 0 L80 100 L0 100" stroke="none" stroke-width="0" fill="#ffec99"></path>
      <path
         d="M0 0 C16.79 0, 33.57 0, 80 0 M0 0 C29.7 0, 59.41 0, 80 0 M80 0 C80 38, 80 75.99, 80 100 M80 0 C80 23.47, 80 46.93, 80 100 M80 100 C49.14 100, 18.27 100, 0 100 M80 100 C58.66 100, 37.31 100, 0 100 M0 100 C0 70.25, 0 40.49, 0 0 M0 100 C0 63.97, 0 27.94, 0 0"
         stroke="#1e1e1e" stroke-width="2" fill="none"></path>
   </g>
   <g stroke-linecap="round" transform="translate(150 290) rotate(0 40 30)">
      <path
         d="M80 30 C80 31.56, 79.83 33.15, 79.51 34.69 C79.18 36.24, 78.69 37.78, 78.04 39.27 C77.4 40.76, 76.59 42.23, 75.64 43.62 C74.69 45.01, 73.59 46.37, 72.36 47.63 C71.13 48.9, 69.76 50.11, 68.28 51.21 C66.81 52.32, 65.2 53.35, 63.51 54.27 C61.82 55.19, 60.02 56.02, 58.16 56.73 C56.3 57.44, 54.34 58.05, 52.36 58.53 C50.38 59.02, 48.32 59.39, 46.26 59.63 C44.2 59.88, 42.09 60, 40 60 C37.91 60, 35.8 59.88, 33.74 59.63 C31.68 59.39, 29.62 59.02, 27.64 58.53 C25.66 58.05, 23.7 57.44, 21.84 56.73 C19.98 56.02, 18.18 55.19, 16.49 54.27 C14.8 53.35, 13.19 52.32, 11.72 51.21 C10.24 50.11, 8.87 48.9, 7.64 47.63 C6.41 46.37, 5.31 45.01, 4.36 43.62 C3.41 42.23, 2.6 40.76, 1.96 39.27 C1.31 37.78, 0.82 36.24, 0.49 34.69 C0.17 33.15, 0 31.56, 0 30 C0 28.44, 0.17 26.85, 0.49 25.31 C0.82 23.76, 1.31 22.22, 1.96 20.73 C2.6 19.24, 3.41 17.77, 4.36 16.38 C5.31 14.99, 6.41 13.63, 7.64 12.37 C8.87 11.1, 10.24 9.89, 11.72 8.79 C13.19 7.68, 14.8 6.65, 16.49 5.73 C18.18 4.81, 19.98 3.98, 21.84 3.27 C23.7 2.56, 25.66 1.95, 27.64 1.47 C29.62 0.98, 31.68 0.61, 33.74 0.37 C35.8 0.12, 37.91 0, 40 0 C42.09 0, 44.2 0.12, 46.26 0.37 C48.32 0.61, 50.38 0.98, 52.36 1.47 C54.34 1.95, 56.3 2.56, 58.16 3.27 C60.02 3.98, 61.82 4.81, 63.51 5.73 C65.2 6.65, 66.81 7.68, 68.28 8.79 C69.76 9.89, 71.13 11.1, 72.36 12.37 C73.59 13.63, 74.69 14.99, 75.64 16.38 C76.59 17.77, 77.4 19.24, 78.04 20.73 C78.69 22.22, 79.18 23.76, 79.51 25.31 C79.83 26.85, 79.92 29.22, 80 30 C80.08 30.78, 80.08 29.22, 80 30"
         stroke="none" stroke-width="0" fill="#ffec99"></path>
      <path
         d="M80 30 C80 31.56, 79.83 33.15, 79.51 34.69 C79.18 36.24, 78.69 37.78, 78.04 39.27 C77.4 40.76, 76.59 42.23, 75.64 43.62 C74.69 45.01, 73.59 46.37, 72.36 47.63 C71.13 48.9, 69.76 50.11, 68.28 51.21 C66.81 52.32, 65.2 53.35, 63.51 54.27 C61.82 55.19, 60.02 56.02, 58.16 56.73 C56.3 57.44, 54.34 58.05, 52.36 58.53 C50.38 59.02, 48.32 59.39, 46.26 59.63 C44.2 59.88, 42.09 60, 40 60 C37.91 60, 35.8 59.88, 33.74 59.63 C31.68 59.39, 29.62 59.02, 27.64 58.53 C25.66 58.05, 23.7 57.44, 21.84 56.73 C19.98 56.02, 18.18 55.19, 16.49 54.27 C14.8 53.35, 13.19 52.32, 11.72 51.21 C10.24 50.11, 8.87 48.9, 7.64 47.63 C6.41 46.37, 5.31 45.01, 4.36 43.62 C3.41 42.23, 2.6 40.76, 1.96 39.27 C1.31 37.78, 0.82 36.24, 0.49 34.69 C0.17 33.15, 0 31.56, 0 30 C0 28.44, 0.17 26.85, 0.49 25.31 C0.82 23.76, 1.31 22.22, 1.96 20.73 C2.6 19.24, 3.41 17.77, 4.36 16.38 C5.31 14.99, 6.41 13.63, 7.64 12.37 C8.87 11.1, 10.24 9.89, 11.72 8.79 C13.19 7.68, 14.8 6.65, 16.49 5.73 C18.18 4.81, 19.98 3.98, 21.84 3.27 C23.7 2.56, 25.66 1.95, 27.64 1.47 C29.62 0.98, 31.68 0.61, 33.74 0.37 C35.8 0.12, 37.91 0, 40 0 C42.09 0, 44.2 0.12, 46.26 0.37 C48.32 0.61, 50.38 0.98, 52.36 1.47 C54.34 1.95, 56.3 2.56, 58.16 3.27 C60.02 3.98, 61.82 4.81, 63.51 5.73 C65.2 6.65, 66.81 7.68, 68.28 8.79 C69.76 9.89, 71.13 11.1, 72.36 12.37 C73.59 13.63, 74.69 14.99, 75.64 16.38 C76.59 17.77, 77.4 19.24, 78.04 20.73 C78.69 22.22, 79.18 23.76, 79.51 25.31 C79.83 26.85, 79.92 29.22, 80 30 C80.08 30.78, 80.08 29.22, 80 30"
         stroke="#1e1e1e" stroke-width="2" fill="none"></path>
   </g>
   <g stroke-linecap="round">
      <g transform="translate(190 410) rotate(0 0 -40)">
         <path d="M0 0 C0 -19.02, 0 -38.05, 0 -80 M0 0 C0 -30.49, 0 -60.98, 0 -80" stroke="#1e1e1e"
            stroke-width="2" fill="none"></path>
      </g>
   </g>
   <mask></mask>
   <g stroke-linecap="round" transform="translate(150 310) rotate(0 40 50)">
      <path d="M0 0 L80 0 L80 100 L0 100" stroke="none" stroke-width="0" fill="#ffec99"></path>
      <path
         d="M0 0 C24.67 0, 49.35 0, 80 0 M0 0 C19.17 0, 38.34 0, 80 0 M80 0 C80 21.73, 80 43.46, 80 100 M80 0 C80 27.25, 80 54.49, 80 100 M80 100 C59.68 100, 39.36 100, 0 100 M80 100 C48.75 100, 17.5 100, 0 100 M0 100 C0 79.27, 0 58.55, 0 0 M0 100 C0 67.87, 0 35.74, 0 0"
         stroke="#1e1e1e" stroke-width="2" fill="none"></path>
   </g>
   <g stroke-linecap="round" transform="translate(150 290) rotate(0 40 30)">
      <path
         d="M80 30 C80 31.56, 79.83 33.15, 79.51 34.69 C79.18 36.24, 78.69 37.78, 78.04 39.27 C77.4 40.76, 76.59 42.23, 75.64 43.62 C74.69 45.01, 73.59 46.37, 72.36 47.63 C71.13 48.9, 69.76 50.11, 68.28 51.21 C66.81 52.32, 65.2 53.35, 63.51 54.27 C61.82 55.19, 60.02 56.02, 58.16 56.73 C56.3 57.44, 54.34 58.05, 52.36 58.53 C50.38 59.02, 48.32 59.39, 46.26 59.63 C44.2 59.88, 42.09 60, 40 60 C37.91 60, 35.8 59.88, 33.74 59.63 C31.68 59.39, 29.62 59.02, 27.64 58.53 C25.66 58.05, 23.7 57.44, 21.84 56.73 C19.98 56.02, 18.18 55.19, 16.49 54.27 C14.8 53.35, 13.19 52.32, 11.72 51.21 C10.24 50.11, 8.87 48.9, 7.64 47.63 C6.41 46.37, 5.31 45.01, 4.36 43.62 C3.41 42.23, 2.6 40.76, 1.96 39.27 C1.31 37.78, 0.82 36.24, 0.49 34.69 C0.17 33.15, 0 31.56, 0 30 C0 28.44, 0.17 26.85, 0.49 25.31 C0.82 23.76, 1.31 22.22, 1.96 20.73 C2.6 19.24, 3.41 17.77, 4.36 16.38 C5.31 14.99, 6.41 13.63, 7.64 12.37 C8.87 11.1, 10.24 9.89, 11.72 8.79 C13.19 7.68, 14.8 6.65, 16.49 5.73 C18.18 4.81, 19.98 3.98, 21.84 3.27 C23.7 2.56, 25.66 1.95, 27.64 1.47 C29.62 0.98, 31.68 0.61, 33.74 0.37 C35.8 0.12, 37.91 0, 40 0 C42.09 0, 44.2 0.12, 46.26 0.37 C48.32 0.61, 50.38 0.98, 52.36 1.47 C54.34 1.95, 56.3 2.56, 58.16 3.27 C60.02 3.98, 61.82 4.81, 63.51 5.73 C65.2 6.65, 66.81 7.68, 68.28 8.79 C69.76 9.89, 71.13 11.1, 72.36 12.37 C73.59 13.63, 74.69 14.99, 75.64 16.38 C76.59 17.77, 77.4 19.24, 78.04 20.73 C78.69 22.22, 79.18 23.76, 79.51 25.31 C79.83 26.85, 79.92 29.22, 80 30 C80.08 30.78, 80.08 29.22, 80 30"
         stroke="none" stroke-width="0" fill="#ffec99"></path>
      <path
         d="M80 30 C80 31.56, 79.83 33.15, 79.51 34.69 C79.18 36.24, 78.69 37.78, 78.04 39.27 C77.4 40.76, 76.59 42.23, 75.64 43.62 C74.69 45.01, 73.59 46.37, 72.36 47.63 C71.13 48.9, 69.76 50.11, 68.28 51.21 C66.81 52.32, 65.2 53.35, 63.51 54.27 C61.82 55.19, 60.02 56.02, 58.16 56.73 C56.3 57.44, 54.34 58.05, 52.36 58.53 C50.38 59.02, 48.32 59.39, 46.26 59.63 C44.2 59.88, 42.09 60, 40 60 C37.91 60, 35.8 59.88, 33.74 59.63 C31.68 59.39, 29.62 59.02, 27.64 58.53 C25.66 58.05, 23.7 57.44, 21.84 56.73 C19.98 56.02, 18.18 55.19, 16.49 54.27 C14.8 53.35, 13.19 52.32, 11.72 51.21 C10.24 50.11, 8.87 48.9, 7.64 47.63 C6.41 46.37, 5.31 45.01, 4.36 43.62 C3.41 42.23, 2.6 40.76, 1.96 39.27 C1.31 37.78, 0.82 36.24, 0.49 34.69 C0.17 33.15, 0 31.56, 0 30 C0 28.44, 0.17 26.85, 0.49 25.31 C0.82 23.76, 1.31 22.22, 1.96 20.73 C2.6 19.24, 3.41 17.77, 4.36 16.38 C5.31 14.99, 6.41 13.63, 7.64 12.37 C8.87 11.1, 10.24 9.89, 11.72 8.79 C13.19 7.68, 14.8 6.65, 16.49 5.73 C18.18 4.81, 19.98 3.98, 21.84 3.27 C23.7 2.56, 25.66 1.95, 27.64 1.47 C29.62 0.98, 31.68 0.61, 33.74 0.37 C35.8 0.12, 37.91 0, 40 0 C42.09 0, 44.2 0.12, 46.26 0.37 C48.32 0.61, 50.38 0.98, 52.36 1.47 C54.34 1.95, 56.3 2.56, 58.16 3.27 C60.02 3.98, 61.82 4.81, 63.51 5.73 C65.2 6.65, 66.81 7.68, 68.28 8.79 C69.76 9.89, 71.13 11.1, 72.36 12.37 C73.59 13.63, 74.69 14.99, 75.64 16.38 C76.59 17.77, 77.4 19.24, 78.04 20.73 C78.69 22.22, 79.18 23.76, 79.51 25.31 C79.83 26.85, 79.92 29.22, 80 30 C80.08 30.78, 80.08 29.22, 80 30"
         stroke="#1e1e1e" stroke-width="2" fill="none"></path>
   </g>
   <g stroke-linecap="round">
      <g transform="translate(190 410) rotate(0 0 -40)">
         <path d="M0 0 C0 -30.4, 0 -60.79, 0 -80 M0 0 C0 -18.77, 0 -37.55, 0 -80" stroke="#1e1e1e"
            stroke-width="2" fill="none"></path>
      </g>
   </g>
   <mask></mask>
   <g stroke-linecap="round" transform="translate(270 310) rotate(0 40 50)">
      <path d="M0 0 L80 0 L80 100 L0 100" stroke="none" stroke-width="0" fill="#ffec99"></path>
      <path
         d="M0 0 C17.38 0, 34.76 0, 80 0 M0 0 C21.8 0, 43.6 0, 80 0 M80 0 C80 25.4, 80 50.8, 80 100 M80 0 C80 39.06, 80 78.13, 80 100 M80 100 C63.42 100, 46.84 100, 0 100 M80 100 C54.3 100, 28.59 100, 0 100 M0 100 C0 79.56, 0 59.13, 0 0 M0 100 C0 61.25, 0 22.5, 0 0"
         stroke="#1e1e1e" stroke-width="2" fill="none"></path>
   </g>
   <g stroke-linecap="round" transform="translate(270 290) rotate(0 40 30)">
      <path
         d="M80 30 C80 31.56, 79.83 33.15, 79.51 34.69 C79.18 36.24, 78.69 37.78, 78.04 39.27 C77.4 40.76, 76.59 42.23, 75.64 43.62 C74.69 45.01, 73.59 46.37, 72.36 47.63 C71.13 48.9, 69.76 50.11, 68.28 51.21 C66.81 52.32, 65.2 53.35, 63.51 54.27 C61.82 55.19, 60.02 56.02, 58.16 56.73 C56.3 57.44, 54.34 58.05, 52.36 58.53 C50.38 59.02, 48.32 59.39, 46.26 59.63 C44.2 59.88, 42.09 60, 40 60 C37.91 60, 35.8 59.88, 33.74 59.63 C31.68 59.39, 29.62 59.02, 27.64 58.53 C25.66 58.05, 23.7 57.44, 21.84 56.73 C19.98 56.02, 18.18 55.19, 16.49 54.27 C14.8 53.35, 13.19 52.32, 11.72 51.21 C10.24 50.11, 8.87 48.9, 7.64 47.63 C6.41 46.37, 5.31 45.01, 4.36 43.62 C3.41 42.23, 2.6 40.76, 1.96 39.27 C1.31 37.78, 0.82 36.24, 0.49 34.69 C0.17 33.15, 0 31.56, 0 30 C0 28.44, 0.17 26.85, 0.49 25.31 C0.82 23.76, 1.31 22.22, 1.96 20.73 C2.6 19.24, 3.41 17.77, 4.36 16.38 C5.31 14.99, 6.41 13.63, 7.64 12.37 C8.87 11.1, 10.24 9.89, 11.72 8.79 C13.19 7.68, 14.8 6.65, 16.49 5.73 C18.18 4.81, 19.98 3.98, 21.84 3.27 C23.7 2.56, 25.66 1.95, 27.64 1.47 C29.62 0.98, 31.68 0.61, 33.74 0.37 C35.8 0.12, 37.91 0, 40 0 C42.09 0, 44.2 0.12, 46.26 0.37 C48.32 0.61, 50.38 0.98, 52.36 1.47 C54.34 1.95, 56.3 2.56, 58.16 3.27 C60.02 3.98, 61.82 4.81, 63.51 5.73 C65.2 6.65, 66.81 7.68, 68.28 8.79 C69.76 9.89, 71.13 11.1, 72.36 12.37 C73.59 13.63, 74.69 14.99, 75.64 16.38 C76.59 17.77, 77.4 19.24, 78.04 20.73 C78.69 22.22, 79.18 23.76, 79.51 25.31 C79.83 26.85, 79.92 29.22, 80 30 C80.08 30.78, 80.08 29.22, 80 30"
         stroke="none" stroke-width="0" fill="#ffec99"></path>
      <path
         d="M80 30 C80 31.56, 79.83 33.15, 79.51 34.69 C79.18 36.24, 78.69 37.78, 78.04 39.27 C77.4 40.76, 76.59 42.23, 75.64 43.62 C74.69 45.01, 73.59 46.37, 72.36 47.63 C71.13 48.9, 69.76 50.11, 68.28 51.21 C66.81 52.32, 65.2 53.35, 63.51 54.27 C61.82 55.19, 60.02 56.02, 58.16 56.73 C56.3 57.44, 54.34 58.05, 52.36 58.53 C50.38 59.02, 48.32 59.39, 46.26 59.63 C44.2 59.88, 42.09 60, 40 60 C37.91 60, 35.8 59.88, 33.74 59.63 C31.68 59.39, 29.62 59.02, 27.64 58.53 C25.66 58.05, 23.7 57.44, 21.84 56.73 C19.98 56.02, 18.18 55.19, 16.49 54.27 C14.8 53.35, 13.19 52.32, 11.72 51.21 C10.24 50.11, 8.87 48.9, 7.64 47.63 C6.41 46.37, 5.31 45.01, 4.36 43.62 C3.41 42.23, 2.6 40.76, 1.96 39.27 C1.31 37.78, 0.82 36.24, 0.49 34.69 C0.17 33.15, 0 31.56, 0 30 C0 28.44, 0.17 26.85, 0.49 25.31 C0.82 23.76, 1.31 22.22, 1.96 20.73 C2.6 19.24, 3.41 17.77, 4.36 16.38 C5.31 14.99, 6.41 13.63, 7.64 12.37 C8.87 11.1, 10.24 9.89, 11.72 8.79 C13.19 7.68, 14.8 6.65, 16.49 5.73 C18.18 4.81, 19.98 3.98, 21.84 3.27 C23.7 2.56, 25.66 1.95, 27.64 1.47 C29.62 0.98, 31.68 0.61, 33.74 0.37 C35.8 0.12, 37.91 0, 40 0 C42.09 0, 44.2 0.12, 46.26 0.37 C48.32 0.61, 50.38 0.98, 52.36 1.47 C54.34 1.95, 56.3 2.56, 58.16 3.27 C60.02 3.98, 61.82 4.81, 63.51 5.73 C65.2 6.65, 66.81 7.68, 68.28 8.79 C69.76 9.89, 71.13 11.1, 72.36 12.37 C73.59 13.63, 74.69 14.99, 75.64 16.38 C76.59 17.77, 77.4 19.24, 78.04 20.73 C78.69 22.22, 79.18 23.76, 79.51 25.31 C79.83 26.85, 79.92 29.22, 80 30 C80.08 30.78, 80.08 29.22, 80 30"
         stroke="#1e1e1e" stroke-width="2" fill="none"></path>
   </g>
   <g stroke-linecap="round">
      <g transform="translate(310 410) rotate(0 0 -40)">
         <path d="M0 0 C0 -30.86, 0 -61.73, 0 -80 M0 0 C0 -21.34, 0 -42.69, 0 -80" stroke="#1e1e1e"
            stroke-width="2" fill="none"></path>
      </g>
   </g>
   <mask></mask>
   <g stroke-linecap="round">
      <g transform="translate(30 310) rotate(0 40 10)">
         <path
            d="M0 0 C15.06 7.53, 30.12 15.06, 40 20 M0 0 C8.28 4.14, 16.55 8.28, 40 20 M40 20 C53.92 13.04, 67.85 6.08, 80 0 M40 20 C51.39 14.31, 62.78 8.61, 80 0"
            stroke="#1e1e1e" stroke-width="2" fill="none"></path>
      </g>
   </g>
   <mask></mask>
   <g stroke-linecap="round">
      <g transform="translate(150 310) rotate(0 40 10)">
         <path
            d="M0 0 C11.91 5.96, 23.82 11.91, 40 20 M0 0 C14.16 7.08, 28.32 14.16, 40 20 M40 20 C52.38 13.81, 64.77 7.62, 80 0 M40 20 C53.03 13.48, 66.07 6.97, 80 0"
            stroke="#1e1e1e" stroke-width="2" fill="none"></path>
      </g>
   </g>
   <mask></mask>
   <g stroke-linecap="round">
      <g transform="translate(270 310) rotate(0 40 10)">
         <path
            d="M0 0 C12.61 6.31, 25.23 12.61, 40 20 M0 0 C8.41 4.2, 16.81 8.41, 40 20 M40 20 C55.09 12.45, 70.19 4.91, 80 0 M40 20 C48.04 15.98, 56.08 11.96, 80 0"
            stroke="#1e1e1e" stroke-width="2" fill="none"></path>
      </g>
   </g>
   <mask></mask>
</svg>